<svg id="Layer_1" data-name="Layer 1" xmlns="http://www.w3.org/2000/svg" viewBox="0 0 430.12 243.18"><defs><style>.cls-1{fill:#fff;}</style></defs><path class="cls-1" d="M325.53,227.81c-19.11,9.17-38.08,15.29-58.07,17.89-34.18,4.45-68.32,3.08-99.14-12.33-45.7-22.85-90.85-47-122-87.81q-4-5.3-7.77-10.77c-1.36-2-2.4-4.17-3.65-6.38,12.14,3,23.85,6.35,35.75,8.88,22.85,4.85,46.16,3.24,69.32,3.87,22,.6,44,.83,65.75,3.33,18,2.06,34.19,9.74,48.05,21.12,2.54,2.09,5.63,3.59,8.46,5.35l-2.06,2.74c-5.25-.44-10.49-.92-15.73-1.31a62.8,62.8,0,0,1-22.73-6.48c-13.57-6.48-28.61-7.57-43.55-7.94-16.94-.43-33.91,0-50.86-.26-15.92-.23-31.83-.86-48.41-1.34,1.51,1.55,2.81,3.36,4.57,4.6,12.24,8.56,24.48,17.12,36.9,25.44,9,6,19.28,6.61,30.07,6,26.74-1.62,53.55-4.14,80.28-3.66,32.66.58,62.52,10.45,87.24,31.43C320.48,222.25,322.57,224.78,325.53,227.81Zm-34.42-5.38c-42.05-23.79-87.5-18-132.85-13.06C200.17,234.32,244.8,235.68,291.11,222.43Z" transform="translate(-34.94 -128.41)"/><path class="cls-1" d="M307.34,310.19c.55-6.13.75-11.77,1.71-17.3a10.55,10.55,0,0,1,3.83-6c18.26-13.83,25.28-32.17,26.21-53.53.56-12.69,1.44-25.51,8.62-37.08a61.57,61.57,0,0,1,36.05-27.47,19.7,19.7,0,0,0,2.73-1.43c-16.3-9.3-33.18-9.79-50.5-6.06-17.61,3.8-31.39,13.24-42,26.7-5.78-3.49-11.13-6.73-16.86-10.21,15.67-17.13,34.45-29.24,58.11-33.45,26-4.62,50.1-.16,71.59,14.95,2,1.43,5.16,2,7.81,2,16.61.33,32.47,3,46.7,11.63,1.29.78,2.49,1.69,3.74,2.54-.07.52-.13,1.05-.2,1.57-9.89,0-19.88-.8-29.65.19-13.75,1.4-27.69,3-40.93,6.54-22.53,6-35.37,22.58-37.26,44.57-1.13,13.11-1.54,26.35-7.18,38.78C341.23,286.13,326.48,299.7,307.34,310.19Z" transform="translate(-34.94 -128.41)"/><path class="cls-1" d="M204.49,371.59l-14.24-12.43c8.82-5.61,17.49-10.4,25.27-16.21,26.81-20,46.72-44.84,57.91-75.38,1.2-3.27,2.93-4.84,6.63-5.23,4.16-.43,8.25-1.49,12.36-2.28C295.75,287.36,245.5,351.07,204.49,371.59Z" transform="translate(-34.94 -128.41)"/><path class="cls-1" d="M159.71,330c10.14-4.6,19.84-8.64,29.16-13.31,19.64-9.85,36.14-23.26,48.86-40.35,3.68-4.95,7.31-8,13.89-7.49a70.84,70.84,0,0,0,8.43-.37c-4.24,22.68-45.87,61.9-88.33,74.68Z" transform="translate(-34.94 -128.41)"/></svg>