<svg id="Layer_1" data-name="Layer 1" xmlns="http://www.w3.org/2000/svg" viewBox="0 0 430.12 326.26"><defs><style>.cls-1,.cls-2{fill:#fff;}.cls-2{opacity:0.98;font-size:85.03px;font-family:FuturaBT-BoldItalic, Futura Md BT;font-weight:700;font-style:italic;}.cls-3{letter-spacing:-0.08em;}</style></defs><path class="cls-1" d="M325.53,176.76c-19.11,9.18-38.08,15.29-58.07,17.89-34.18,4.45-68.32,3.08-99.14-12.33-45.7-22.85-90.85-47-122-87.81q-4-5.28-7.77-10.76c-1.36-2-2.4-4.17-3.65-6.38,12.14,3,23.85,6.35,35.75,8.87,22.85,4.85,46.16,3.25,69.32,3.88,22,.59,44,.82,65.75,3.32,18,2.06,34.19,9.74,48.05,21.13,2.54,2.08,5.63,3.58,8.46,5.35l-2.06,2.74c-5.25-.45-10.49-.93-15.73-1.32a62.79,62.79,0,0,1-22.73-6.47c-13.57-6.49-28.61-7.58-43.55-8-16.94-.43-33.91,0-50.86-.25-15.92-.24-31.83-.87-48.41-1.35,1.51,1.55,2.81,3.37,4.57,4.6,12.24,8.56,24.48,17.13,36.9,25.44,9,6,19.28,6.61,30.07,6,26.74-1.63,53.55-4.15,80.28-3.67,32.66.58,62.52,10.45,87.24,31.44C320.48,171.2,322.57,173.73,325.53,176.76Zm-34.42-5.38c-42.05-23.79-87.5-18-132.85-13.06C200.17,183.28,244.8,184.64,291.11,171.38Z" transform="translate(-34.94 -77.37)"/><path class="cls-1" d="M307.34,259.14c.55-6.12.75-11.77,1.71-17.29a10.61,10.61,0,0,1,3.83-6c18.26-13.83,25.28-32.17,26.21-53.52.56-12.7,1.44-25.52,8.62-37.08a61.59,61.59,0,0,1,36.05-27.48,20.51,20.51,0,0,0,2.73-1.42c-16.3-9.31-33.18-9.8-50.5-6.06-17.61,3.79-31.39,13.23-42,26.7l-16.86-10.21c15.67-17.13,34.45-29.24,58.11-33.45,26-4.63,50.1-.17,71.59,15,2,1.42,5.16,2,7.81,2,16.61.33,32.47,3.06,46.7,11.64,1.29.78,2.49,1.68,3.74,2.53-.07.53-.13,1.05-.2,1.57-9.89,0-19.88-.8-29.65.2-13.75,1.39-27.69,3-40.93,6.54-22.53,6-35.37,22.57-37.26,44.57-1.13,13.1-1.54,26.35-7.18,38.77C341.23,235.08,326.48,248.65,307.34,259.14Z" transform="translate(-34.94 -77.37)"/><path class="cls-1" d="M204.49,320.54l-14.24-12.42c8.82-5.62,17.49-10.41,25.27-16.22,26.81-20,46.72-44.84,57.91-75.37,1.2-3.27,2.93-4.85,6.63-5.23,4.16-.44,8.25-1.5,12.36-2.29C295.75,236.31,245.5,300,204.49,320.54Z" transform="translate(-34.94 -77.37)"/><path class="cls-1" d="M159.71,279c10.14-4.6,19.84-8.63,29.16-13.31,19.64-9.85,36.14-23.26,48.86-40.34,3.68-5,7.31-8,13.89-7.5a70.84,70.84,0,0,0,8.43-.37c-4.24,22.68-45.87,61.9-88.33,74.69Z" transform="translate(-34.94 -77.37)"/><text class="cls-2" transform="translate(45.29 305.58)"><tspan class="cls-3">T</tspan><tspan x="39.49" y="0">auraca</tspan></text></svg>